<svg width="158" height="77" fill="none" xmlns="http://www.w3.org/2000/svg"><path d="M9.744 33.71 0 29.22l10.549-4.872c.299-14.574 14.38-17.733 20.22-17.168 5.84.567 22.828 10.986 15.982 32.269-2.332 7.253-1.782 26.019 25.438 24.286-2.044 3.853-11.641 19.835-42.875 9.668-8.66-2.819-21-16.773-19.57-39.694Z" fill="#FFBD54"/><path d="M98.613 29.102c.855-10.324-4.496-19.68-7.631-21.837-2.925-2.01-2.936 6.67-5.54 11.431a32.88 32.88 0 0 0-12.668-2.516c-4.507 0-8.785.901-12.646 2.507-2.6-4.763-2.613-13.432-5.536-11.423-3.132 2.147-8.472 11.498-7.632 21.801-3.224 4.522-5.105 9.937-5.105 15.763 0 15.822 13.843 27.557 30.918 27.557 17.076 0 30.919-11.735 30.919-27.557 0-5.81-1.872-11.212-5.079-15.726Z" fill="#78C0DE"/><path d="M97.102 46.639c.799-14.164 6.208-16.122 6.919-24.784.984-11.994 9.246-20.715 13.328-21.789 4.082-1.07-1.125 11.101 2.534 15.232 7.652-2.652 12.512-.393 16.35 3.759 3.84 4.153-1.172 8.12 6.345 7.056 3.092-.44 6.306-.336 8.996.35a3.71 3.71 0 0 1 .828-.416c2.117-.733 4.496.589 5.317 2.956.31.896.35 1.814.168 2.648.094.457.133.942.103 1.458-.414 7.28-9.387 17.309-14.961 18.04-5.574.732-11.493-.231-11.644 10.922-.201 14.854-33.082 20.733-41.136 5.652 5.894-4.264 6.243-10.267 6.853-21.084Z" fill="#000"/><path d="M121.798 19.702c3.849.34 6.907-1.705 9.883-3.997-1.197-.148-2.519-.157-4.003.012-2.23-4.032 4.231-13.007.707-12.876-3.176.113-11.304 4.465-15.051 12.354 2.72 1.827 4.884 4.7 8.464 4.507Z" fill="#000"/><path d="M33.941 30.643a3.255 3.255 0 0 0-1.405-.107c-1.376.196-2.539 1.275-2.887 2.67L26.562 44.74l-6.156-10.232c-.772-1.231-2.202-1.929-3.56-1.735-.462.066-.89.23-1.272.489-.864.533-1.46 1.336-1.678 2.264a3.361 3.361 0 0 0 .43 2.574l10.415 17.484c.074.15.19.369.393.546a.952.952 0 0 0 .246.199l.093.132.128.097c.046.035.098.072.158.105l.025.173.44.147.134.1.997.215.296.056.148-.021c.254.013.442-.014.55-.029.148-.02.342-.048.582-.133l.224-.032.184-.126.894-.575.183-.244c.054-.06.131-.144.21-.267a1.01 1.01 0 0 0 .156-.24l.08-.131.014-.025c.087-.094.157-.202.206-.32.088-.166.16-.363.2-.55l5.204-19.698a3.385 3.385 0 0 0-.298-2.615c-.474-.838-1.28-1.446-2.247-1.705ZM72.594 30.505c-8.291.145-14.967 7.211-14.88 15.768.213 8.62 6.983 15.308 15.413 15.222h.009c4.437-.078 8.028-1.478 10.973-4.281.717-.677 1.108-1.54 1.13-2.492.03-1.223-.558-2.295-1.13-2.902-.613-.704-1.692-1.11-2.896-1.09-1.21.022-2.327.475-3.084 1.247-.972.73-2.663 1.216-4.34 1.246a8.715 8.715 0 0 1-.695-.016c-1.75-.12-3.739-.996-4.726-2.086l-.08-.08c-.449-.41-.848-.992-1.16-1.681l16.544-.289c2.155-.038 3.816-1.377 4.09-3.276.064-.238.076-.499.07-.8l-.008-.356c-.64-8.333-7.045-14.277-15.23-14.134Zm6.799 11.377-12.616.22c.864-1.708 2.774-3.53 5.934-3.761 3.24.228 5.54 1.908 6.682 3.54ZM122.868 44.21c2.256.236 4.357-1.445 4.589-3.67.236-2.266-1.438-4.302-3.732-4.54l-.215-.024.699-6.7c.24-2.302-1.375-4.294-3.677-4.534-2.333-.244-4.349 1.37-4.589 3.671l-.7 6.7-.432-.045c-2.303-.24-4.295 1.375-4.536 3.678a4.134 4.134 0 0 0 3.678 4.535l.432.044-1.456 13.94c-.411 3.931 2.455 7.465 6.388 7.876 2.301.24 4.293-1.374 4.535-3.678.202-1.933-.871-3.647-2.553-4.315l1.352-12.96.217.023Z" fill="#fff"/></svg>