<svg width="669" height="236" fill="none" xmlns="http://www.w3.org/2000/svg"><path d="M509 133a10 10 0 0 1 6 16h1-1l-5 7a6 6 0 0 1-7 2 6 6 0 0 1-4-6c0-4-1-7-4-10a6 6 0 0 1-1-7l3-3h4l8 1ZM508 129l4 2 4-2 2-4-10 4Zm0 0v-1c-1-2-1-5 1-6 3-2 6-2 8 0m-9 7 9-7m0 0 1 3-1-3ZM525 139c-3 1-7 0-8-3s1-7 4-8c4-2 7 0 9 3 1 3-1 6-5 8ZM532 146l-2 4-4 2c-3 0-5-2-6-4v-1c-1-3 2-6 5-6l5 1 2 4Zm0 0c0 1 0 3-2 4l2-4Zm-2-4ZM524 158c1-2-1-5-4-6l4 6Zm0 0v1c0 2-3 4-6 3l6-4Zm-11-2 1 2c0 2 2 3 4 4l-5-6Zm0 0c1-3 4-4 7-4l-7 4Z" fill="#78C0DE" stroke="#000"/><path d="m448 194 12 11-1 1-3 3c-2 2-6 1-9-3-3-3-4-7-2-9l3-3Z" fill="#5A6E7F"/><path d="m451 191 11 12-2 2-12-11h1l2-3Z" fill="#78C0DE"/><path d="M512 97a44 44 0 1 1-25 81l-25 25-11-12 25-24c-6-7-9-16-9-26 0-24 20-44 45-44Zm-1 76a31 31 0 1 0 0-63 31 31 0 0 0 0 63Z" fill="#333"/><g opacity=".3" fill="#000"><g opacity=".2"><path d="M80 22a6 6 0 0 0 4-9l-2-4a4 4 0 0 0-5-2 4 4 0 0 0-2 4c0 2-1 4-3 5a4 4 0 0 0 0 4 4 4 0 0 0 3 2h5ZM85 11l1 2 2 1 3-1 1-2c0-1-1-3-3-3l-4 2v1ZM86 17c-1 2 0 4 2 5s4 0 5-2 0-4-2-5-4 0-5 2ZM83 22l-1 1c-1 1 0 3 1 4l3 1 2-1 1-3-2-2h-4ZM80 29c1-1 2-3 1-5-1-1-3-2-5-1l-1 1 1 3c0 2 2 3 4 2Z"/></g><g opacity=".3"><path d="M174 72a6 6 0 0 0 4-9l-3-4a4 4 0 0 0-4-2 4 4 0 0 0-2 4c0 2-1 4-3 5a4 4 0 0 0-1 4 4 4 0 0 0 4 2h5ZM179 61l1 2 2 1 3-1 1-2c0-1-2-3-4-3l-3 2v1ZM180 67c-1 2 0 4 2 5s4 0 5-2 0-4-2-5-5 0-5 2ZM176 72v1c-1 1 0 3 1 4l2 1 3-1v-2l-1-3h-5ZM174 79c1-1 2-3 1-4-1-2-3-3-5-2l-1 1v4c1 1 3 2 5 1Z"/></g><g opacity=".6"><path d="M499 51a6 6 0 0 0-4-9l-5-1a4 4 0 0 0-4 2 4 4 0 0 0 1 5l2 5a4 4 0 0 0 7 2l3-4ZM494 41h2l3-1 1-2-1-2h-5l-1 4 1 1Z"/><path d="M499 44c1 2 3 3 5 2s3-3 2-5c0-2-3-3-5-2s-3 3-2 5ZM500 50l1 1 3 2 3-1 1-3-2-2h-2c-2 0-4 1-4 3ZM504 57c0-2-1-4-3-4s-4 0-4 2v2c0 1 1 2 3 2l4-2Z"/></g><g opacity=".2"><path d="M14 21a6 6 0 0 0 5-10l-2-4a4 4 0 0 0-5-3 4 4 0 0 0-3 4l-3 6a4 4 0 0 0-2 4 4 4 0 0 0 4 3h6ZM20 10l1 2 3 2 2-1 2-2c0-2-1-4-3-4s-4 0-4 2l-1 1Z"/><path d="M21 16c-1 2-1 5 1 6 3 1 5 1 6-1s1-5-2-6c-2-1-4-1-5 1Z"/><path d="M16 21v6l3 1h3l1-3-1-3c-2-2-4-2-6-1ZM13 29c1-1 2-3 1-5s-3-3-4-2l-2 1v4c1 2 3 3 5 2Z"/></g><g opacity=".4"><path d="M283 88a6 6 0 0 0-3-9l-5-1a4 4 0 0 0-4 2 4 4 0 0 0 1 5l2 5a4 4 0 0 0 7 2l2-4ZM279 78h2l2-1 2-2-1-2h-5l-1 4 1 1ZM284 81c0 2 3 3 5 2s3-3 2-5-3-3-5-2-3 3-2 5Z"/><path d="M285 87v1l4 2 2-1 1-3-1-2-2-1c-2 1-4 2-4 4ZM288 94c1-2 0-4-2-4-2-1-4 0-4 2v2l2 2 4-2Z"/></g><path d="M651 223a6 6 0 0 0 9-2l2-5a4 4 0 0 0-2-4 4 4 0 0 0-4 0l-6 2a4 4 0 0 0-4 4l1 2 4 3ZM662 220l-1 2 1 3 2 1h2v-5c0-1-2-2-3-1h-1ZM658 224c-2 1-3 3-2 5 0 2 2 4 4 3 2 0 3-2 2-5 0-2-2-3-4-3ZM652 225h-1l-2 4v2l3 1 2-1 1-2c0-2-1-4-3-4ZM645 227c2 1 3 0 4-2 1-1 0-3-2-4h-1l-3 2c0 2 0 4 2 4Z"/><g opacity=".5"><path d="M361 91a6 6 0 0 0-8-7l-5 2a4 4 0 0 0-3 3 4 4 0 0 0 3 4l5 5a4 4 0 0 0 4 2 4 4 0 0 0 4-3v-6ZM351 83l3-1 2-2v-3l-2-1c-2-1-4 0-4 2-1 2-1 3 1 4v1Z"/><path d="M358 84c2 1 4 1 6-1s2-5 0-6-4-1-6 1-2 4 0 6ZM362 89l1 1h5l2-2-1-3-2-2-3 1c-2 1-3 3-2 5ZM369 94c0-2-2-3-4-2-3 0-4 2-3 4l1 1 3 1c2 0 3-2 3-4Z"/></g><g opacity=".3"><path d="M117 87a6 6 0 0 0 1-11l-5-3a4 4 0 0 0-5 0 4 4 0 0 0-1 5v6a4 4 0 0 0 6 6l4-3ZM118 74l2 2h2l3-2v-2c-1-2-3-3-5-2-1 0-2 1-2 3v1Z"/><path d="M121 80c0 2 2 4 4 4 3 0 5-2 5-4s-2-4-4-4c-3 0-5 2-5 4ZM120 86l-1 1c0 2 1 4 3 4h3l2-2v-3l-2-2-5 2ZM120 95c1-2 1-4-1-5-2-2-4-2-5 0l-1 2 2 3h5Z"/></g><g opacity=".6"><path d="M414 32a6 6 0 0 0-1-10l-5-2a4 4 0 0 0-4 1 4 4 0 0 0 0 4v1l1 5a4 4 0 0 0 6 4l3-3ZM412 20l2 2 3-1 1-2v-2c-1-2-2-2-4-1l-2 3v1Z"/><path d="M416 25c1 2 3 3 5 2 2 0 3-2 3-4 0-1-2-3-4-2-2 0-4 2-4 4ZM416 31v1l3 2h3l1-2v-3l-3-1c-2 0-3 1-4 3ZM418 38c1-2 0-3-2-4-1-1-3-1-4 1v1l2 3c1 1 3 0 4-1Z"/></g><g opacity=".8"><path d="M585 106a6 6 0 0 0 9-3l2-4a4 4 0 0 0-2-4 4 4 0 0 0-4 0l-5 1a4 4 0 0 0-5 4l1 2 4 4ZM596 103l-1 2 1 2 2 2 2-1c1-1 2-3 1-4l-4-2-1 1ZM592 107c-2 0-3 3-2 5 0 2 2 3 4 3 2-1 3-3 2-5 0-2-2-3-4-3ZM586 108h-1l-3 3 1 3 2 1 3-1 1-3c0-2-1-3-3-3Z"/><path d="m579 110 4-2c1-2 0-4-1-5h-2l-3 2c0 2 0 4 2 5Z"/></g><g opacity=".5"><path d="M434 100a6 6 0 0 0-7-8h-5a4 4 0 0 0-3 3 4 4 0 0 0 2 5l4 5a4 4 0 0 0 3 3 4 4 0 0 0 4-3l2-5ZM426 90l3 1 2-2v-3l-1-2c-2-1-4 0-5 2v4h1Z"/><path d="M432 92c1 2 4 2 6 1 2-2 2-4 1-6-1-1-4-2-6 0-2 1-2 4-1 5ZM435 98l1 1c1 1 2 2 4 1l2-2 1-2-2-2h-3c-2 0-3 2-3 4ZM440 104c0-2-1-3-3-3s-4 1-4 3l1 2 3 1c2 0 3-1 3-3Z"/></g><g opacity=".7"><path d="M563 58a6 6 0 0 0 2-9l-4-3a4 4 0 0 0-4-1 4 4 0 0 0-2 4c1 2 1 4-1 6a4 4 0 0 0 3 5h2l4-2ZM565 47l1 2h3l2-1v-2c0-2-2-3-4-2l-2 2v1ZM567 52c0 2 1 4 3 4 2 1 4-1 5-2 0-2-1-4-4-4-2-1-4 0-4 2ZM565 58v1l2 3 3 1 2-2v-2l-2-2c-2-1-4-1-5 1ZM565 65c1-1 1-3-1-4-1-2-3-2-4-1l-1 2 1 3h5Z"/></g><g opacity=".9"><path d="M637 140a5 5 0 0 0 9-3l1-5a3 3 0 0 0-2-4 3 3 0 0 0-4 1l-5 2a3 3 0 0 0-2 6l3 3ZM647 136v2l1 2 2 1h2v-5l-4-1-1 1Z"/><path d="M644 140c-1 1-2 3-1 5 0 2 2 3 4 2 2 0 2-3 2-4-1-2-3-3-5-3ZM639 142h-1l-2 3 1 3h2l2-1 1-2c0-2-2-3-3-3ZM632 145c2 0 3-1 4-3l-2-4-2 1-2 2 2 4Z"/></g><path d="M592 202a5 5 0 0 0 9-3l1-5a3 3 0 0 0-2-3 3 3 0 0 0-4 0c-2 2-3 2-5 2a3 3 0 0 0-4 3 3 3 0 0 0 2 4l3 2ZM602 198v4l3 1h2v-4c-1-1-3-2-4-1h-1Z"/><path d="M599 203c-2 0-2 2-2 4 1 2 3 3 5 3 2-1 2-3 2-5-1-2-3-3-5-2ZM594 204h-1c-2 1-2 2-2 3l1 3 2 1 2-1 1-3c0-2-2-3-3-3ZM587 207c2 0 3-1 4-3l-2-3h-2l-2 2 2 4Z"/></g></svg>