<svg width="54" height="78" fill="none" xmlns="http://www.w3.org/2000/svg"><path d="M52.865 39.024a6.05 6.05 0 1 1-12.1 0 6.05 6.05 0 0 1 12.1 0Z" fill="#89CEEA"/><path d="M46.815 32.974c-.802 0-1.568.158-2.269.441a6.052 6.052 0 0 1 0 11.218 6.05 6.05 0 1 0 2.269-11.66Z" fill="#78C0DE"/><path d="M37.437 60.36v16.252H1.134V60.36a12.03 12.03 0 0 1 8.991-11.653 12.003 12.003 0 0 1 3.002-.382h12.316a12 12 0 0 1 3.012.385 12.027 12.027 0 0 1 8.982 11.65Z" fill="#E8E1D5"/><path d="M28.455 48.71a12.001 12.001 0 0 0-3.012-.385h-4.537a12.002 12.002 0 0 1 3.011.385A12.027 12.027 0 0 1 32.9 60.36v16.252h4.538V60.36a12.027 12.027 0 0 0-8.982-11.65Z" fill="#D6CFC4"/><path d="M28.455 48.71 19.29 76.612l-9.164-27.905a12.003 12.003 0 0 1 3.002-.382h12.316a12.001 12.001 0 0 1 3.011.385Z" fill="#FF573D"/><path d="M26.13 48.324c.546 0 .945.515.81 1.044-.671 2.64-3.843 4.64-7.655 4.64-3.81 0-6.983-2-7.655-4.64a.837.837 0 0 1 .811-1.044h2.349V39.49h8.991v8.835h2.35Z" fill="#EBA28C"/><path d="M19.286 76.612c.046-.392-3.866-25.124-4.523-29.276a.604.604 0 0 0-.684-.502l-6.282.901a.605.605 0 0 0-.517.558l-.56 8.21 2.64 1.607-.736 3.839 10.662 14.663Z" fill="#C4BEB4"/><path d="M19.287 76.612c-.047-.392 3.864-25.124 4.522-29.276a.604.604 0 0 1 .684-.502l6.282.901c.282.041.498.273.517.558l.56 8.21-2.64 1.607.735 3.839-10.66 14.663Z" fill="#C4BEB4"/><path d="M8.244 24.654c0 2.256-1.64 4.084-3.66 4.084-2.022 0-3.298-2.095-3.298-4.35 0-2.662 1.276-3.818 3.297-3.818 2.022 0 3.66 1.83 3.66 4.084ZM30.328 24.654c0 2.256 1.639 4.084 3.66 4.084s3.298-2.095 3.298-4.35c0-2.662-1.277-3.818-3.298-3.818s-3.66 1.83-3.66 4.084Z" fill="#EBA28C"/><path d="M5.975 29.91V20.06c0-6.931 5.619-12.55 12.55-12.55h1.521c6.931 0 12.55 5.619 12.55 12.55v9.849c0 7.345-5.954 13.298-13.298 13.298h-.025c-7.344 0-13.298-5.953-13.298-13.298Z" fill="#FCC19C"/><path d="M20.046 7.51h-1.52c-.512 0-1.015.035-1.51.094 6.22.746 11.043 6.037 11.043 12.457v9.849c0 6.575-4.773 12.035-11.042 13.107.733.125 1.487.191 2.256.191h.025c7.344 0 13.298-5.953 13.298-13.298V20.06c0-6.931-5.619-12.55-12.55-12.55Z" fill="#EBA28C"/><path d="M5.975 24.54a.15.15 0 0 0 .182.149c.605-.128 2.522-.65 2.692-2.178.201-1.815 3.64-6.958 9.08-7.462 3.962-.367 5.887-2.445 6.641-3.548.151-.22.49-.156.546.104.3 1.4 1.118 4.32 2.947 5.966 2.418 2.174 1.69 6.958 4.368 7.146a.153.153 0 0 0 .166-.151v-3.78c0-.4.325-.725.725-.725h.066c.337 0 .629-.23.706-.556.329-1.387 1.03-5.093-.024-7.985-1.322-3.63-5.026-5.143-5.026-5.143s-1.257-4.941-8.961-4.941c-7.705 0-10.727 3.244-10.727 3.244s-5.852 5.017-5.348 9.408c.339 2.95.468 4.875.516 5.82.02.385.339.688.725.688.4 0 .726.325.726.725v3.22Z" fill="#633327"/><path d="M34.07 11.52c-1.322-3.63-5.026-5.143-5.026-5.143s-1.257-4.941-8.961-4.941c-.904 0-1.741.046-2.518.125 5.91.767 6.94 4.816 6.94 4.816s3.705 1.513 5.027 5.143c1.054 2.892.352 6.598.024 7.985a.705.705 0 0 1-.103.235c.881 2.237 1.017 4.84 2.978 4.977a.153.153 0 0 0 .166-.151v-3.78c0-.4.325-.725.725-.725h.066c.336 0 .628-.23.706-.556.329-1.387 1.03-5.093-.024-7.985ZM13.392 15.05c-4.037.373-6.97 3.3-8.298 5.528.05.01.102.018.155.018.4 0 .726.325.726.725v3.22a.15.15 0 0 0 .182.148c.605-.128 2.522-.65 2.692-2.177.201-1.815 3.64-6.958 9.08-7.463 1.37-.127 2.496-.458 3.415-.883-2.487.354-3.99.516-7.952.883Z" fill="#572D22"/><path d="M17.089 26.5a3.782 3.782 0 1 1-7.563 0 3.782 3.782 0 0 1 7.563 0ZM29.045 26.5a3.782 3.782 0 1 1-7.563 0 3.782 3.782 0 0 1 7.563 0Z" fill="#CEE8F2"/><path d="M54 39.024c0-3.962-3.223-7.185-7.185-7.185-3.962 0-7.185 3.223-7.185 7.185 0 3.576 2.626 6.55 6.05 7.095v1.453c0 4.564-3.282 8.375-7.61 9.2a13.214 13.214 0 0 0-5.576-7.52l-.07-1.036a1.75 1.75 0 0 0-1.488-1.604l-1.995-.286c3.932-2.056 6.622-6.173 6.622-10.909v-5.876c1.703-.752 2.857-2.72 2.857-5.153 0-2.645-1.141-4.341-3.178-4.816.376-1.657 1.002-5.4-.106-8.44-1.193-3.276-4.043-5.002-5.184-5.581C29.349 4.1 27.099.3 20.082.3 12.433.301 9.05 3.383 8.58 3.853c-.576.502-6.247 5.58-5.697 10.364.294 2.568.428 4.347.487 5.346-2.061.46-3.218 2.163-3.218 4.825 0 2.45 1.17 4.427 2.891 5.169v5.86c0 4.733 2.688 8.847 6.616 10.905l-2.022.29a1.75 1.75 0 0 0-1.488 1.604l-.07 1.036A13.218 13.218 0 0 0 0 60.36v7.706a1.135 1.135 0 0 0 2.269 0V60.36a10.95 10.95 0 0 1 3.604-8.107l-.285 4.173c-.03.423.18.826.542 1.046l1.968 1.197-.588 3.067c-.06.308.012.627.197.88l9.351 12.862H2.268v-2.59a1.135 1.135 0 0 0-2.268 0v3.724c0 .627.508 1.135 1.134 1.135h36.303c.626 0 1.134-.508 1.134-1.135V60.36c0-.458-.024-.912-.071-1.36 5.374-1.027 9.45-5.76 9.45-11.428V46.12C51.374 45.573 54 42.6 54 39.024ZM35.75 56.94h-2.853c.067-.16.1-.335.087-.514l-.285-4.172a10.963 10.963 0 0 1 3.051 4.686Zm-5.077-1.048-1.662 1.012a9.325 9.325 0 0 1-5.223-2.16c.06-.392.77-4.88 1.06-6.714l5.341.768.484 7.094Zm-11.4-11.55h.024c1.153 0 2.275-.136 3.35-.392v1.503h-6.722V43.95c1.075.256 2.196.392 3.349.392Zm-3.3 3.38h2.2a11.56 11.56 0 0 0 1.277 5.148l-.164.003a9.26 9.26 0 0 1-2.555-.356l-.758-4.795Zm5.87 4.779a9.312 9.312 0 0 1-1.402-4.78H22.6c-.267 1.691-.52 3.282-.755 4.78Zm-2.557 2.641c.543 0 1.077-.036 1.6-.108.152.183.311.359.474.531-.938 5.955-1.603 10.22-2.074 13.28-.487-3.166-1.183-7.622-2.173-13.905.703.133 1.429.202 2.173.202Zm5.63-9.828v-2.11a14.495 14.495 0 0 0 8.378-9.769v1.982c0 4.97-3.63 9.105-8.379 9.897ZM36.15 24.388c0 1.581-.809 3.216-2.163 3.216a2.18 2.18 0 0 1-.257-.016v-5.867c.085-.01.17-.016.257-.016 1.07 0 2.163.319 2.163 2.683ZM10.095 5.542c.032-.027.063-.057.091-.088.027-.03 2.769-2.884 9.897-2.884 6.65 0 7.818 3.93 7.861 4.087.082.356.33.628.667.77.033.012 3.266 1.387 4.393 4.481.893 2.449.34 5.716.054 7.037a1.863 1.863 0 0 0-1.596 1.842v1.46c-.113-.316-.23-.691-.36-1.127-.446-1.5-.953-3.2-2.281-4.393-1.617-1.455-2.354-4.232-2.596-5.36a1.435 1.435 0 0 0-2.591-.506c-.687 1.005-2.355 2.738-5.809 3.059l-.145.014a1.134 1.134 0 1 0 .241 2.256l.113-.01c3.151-.293 5.166-1.566 6.387-2.753.506 1.634 1.39 3.644 2.883 4.987.854.767 1.245 2.082 1.625 3.355.445 1.491.983 3.294 2.533 3.888v4.252c0 6.708-5.456 12.165-12.165 12.165h-.023c-6.708 0-12.165-5.457-12.165-12.165v-4.301a5.202 5.202 0 0 0 1.588-.813A4.89 4.89 0 0 0 8.39 26.5a4.922 4.922 0 0 0 4.916 4.916 4.924 4.924 0 0 0 4.783-3.781h2.392a4.924 4.924 0 0 0 4.782 3.781A4.922 4.922 0 0 0 30.18 26.5a4.922 4.922 0 0 0-4.916-4.916 4.923 4.923 0 0 0-4.782 3.782H18.09a4.924 4.924 0 0 0-4.783-3.782 4.9 4.9 0 0 0-3.38 1.352c.02-.098.038-.198.05-.3.096-.87 1.537-3.337 3.947-4.95a1.135 1.135 0 0 0-1.262-1.885c-2.809 1.88-4.752 4.882-4.94 6.585-.035.305-.288.555-.613.748v-1.817a1.854 1.854 0 0 0-.589-1.35l-.038-.038-.031-.025a1.845 1.845 0 0 0-.812-.402c-.06-1.015-.196-2.866-.504-5.544-.356-3.1 3.46-7.127 4.96-8.416ZM10.66 26.5a2.65 2.65 0 0 1 2.647-2.647 2.65 2.65 0 0 1 2.647 2.647 2.65 2.65 0 0 1-2.647 2.647A2.65 2.65 0 0 1 10.66 26.5Zm11.957 0a2.65 2.65 0 0 1 2.647-2.647 2.65 2.65 0 0 1 2.647 2.647 2.65 2.65 0 0 1-2.647 2.647 2.65 2.65 0 0 1-2.647-2.647ZM4.583 21.705c.087 0 .172.007.257.017v5.866a2.18 2.18 0 0 1-.257.016c-1.354 0-2.163-1.635-2.163-3.216 0-2.364 1.094-2.683 2.163-2.683Zm.728 13.712v-1.846a14.5 14.5 0 0 0 8.345 9.634v2.102c-4.731-.806-8.345-4.932-8.345-9.89ZM9.95 57.14l-2.052-1.248.402-5.889.002-.02.08-1.186 5.343-.767c.29 1.838 3.127 19.894 3.786 24.212L9.83 61.68l.643-3.356c.09-.465-.12-.937-.524-1.183Zm26.353 18.338h-14.79l4.973-6.84a1.134 1.134 0 1 0-1.835-1.334l-3.59 4.938c.546-3.583 1.39-8.993 2.328-14.969 1.43.95 3.081 1.59 4.858 1.828l.494 2.578-1.232 1.694a1.135 1.135 0 0 0 1.835 1.335l1.52-2.091c.186-.254.257-.573.198-.881l-.484-2.527h5.662c.04.38.062.763.062 1.15v15.119ZM46.815 43.94a4.921 4.921 0 0 1-4.916-4.916 4.921 4.921 0 0 1 4.916-4.916 4.921 4.921 0 0 1 4.916 4.916 4.921 4.921 0 0 1-4.916 4.916Z" fill="#000"/></svg>